<svg width="36" height="36" viewBox="0 0 36 36" fill="none" xmlns="http://www.w3.org/2000/svg">
<path d="M2.2504 8.02719L18.1335 0L34.2123 8.02719C34.2123 8.02719 34.1634 21.9035 30.1743 27.9239C26.1851 33.9198 18.3048 36 18.3048 36C18.3048 36 10.1308 33.9687 6.14164 27.9728C2.12804 21.9279 2.2504 8.02719 2.2504 8.02719Z" fill="#F5BE01"/>
<path d="M9.1958 10.125L9 11.8871C9.19579 12.1644 9.57919 12.4092 10.1502 12.6213V22.3126C9.56287 22.541 9.17947 22.7776 9 23.0224L9.1958 24.7844H14.1638L14.3841 23.0224C14.172 22.7776 13.7804 22.541 13.2094 22.3126V12.6213C13.7641 12.4092 14.1557 12.1644 14.3841 11.8871L14.1638 10.125H9.1958ZM15.6322 15.8028C15.9096 16.1128 16.293 16.3493 16.7825 16.5125V22.435C16.2114 22.6471 15.828 22.8837 15.6322 23.1447L15.828 24.7844H20.7226L20.9429 23.1447C20.7145 22.8837 20.3229 22.6471 19.7682 22.435V16.9775C20.4045 16.5206 21.0408 16.2922 21.6771 16.2922C22.3134 16.2922 22.7539 16.4228 22.9986 16.6838C23.2434 16.9449 23.3657 17.4588 23.3657 18.2256V22.435C22.7947 22.6471 22.4113 22.8837 22.2155 23.1447L22.4113 24.7844H27.3059L27.5262 23.1447C27.2977 22.8837 26.9062 22.6471 26.3515 22.435V18.348C26.3515 16.7491 26.0741 15.6233 25.5194 14.9707C24.9483 14.3181 23.9694 13.9918 22.5826 13.9918C22.0442 13.9918 21.4813 14.0896 20.8939 14.2854C20.3066 14.4812 19.8416 14.726 19.499 15.0196V13.9428C19.0748 13.9265 18.5527 13.9183 17.9327 13.9183C17.3127 13.9183 16.6112 13.9999 15.828 14.1631L15.6322 15.8028Z" fill="#1D1D1D"/>
</svg>
