<svg width="77" height="17" viewBox="0 0 77 17" fill="none" xmlns="http://www.w3.org/2000/svg">
<path fill-rule="evenodd" clip-rule="evenodd" d="M14.0773 8.09292C14.0773 7.52188 14.1263 6.64084 14.2242 5.44982L14.2731 4.93589L14.0529 4.91141C13.7266 6.11875 13.441 7.08136 13.1963 7.79924L10.3819 16.0956H7.54301L4.58173 7.79924C4.30437 7.14662 4.05964 6.34717 3.84754 5.40087L3.72517 4.91141L3.50494 4.93589C3.63546 6.19217 3.70071 7.24452 3.70071 8.09292V13.6728C4.2228 13.8686 4.61438 14.1296 4.87543 14.4559L4.65517 16.0956H0.494731L0.274467 14.4559C0.535514 14.1296 0.927096 13.8686 1.44919 13.6728V3.85906C0.87815 3.64696 0.478416 3.38592 0.25 3.07593L0.445797 1.43622H5.29146L8.39957 10.0018C8.79114 10.9318 9.04402 11.7884 9.15823 12.5715L9.23163 12.9386H9.52533C9.59059 12.0739 9.84347 11.095 10.284 10.0018L13.2452 1.43622H17.993L18.2133 3.07593C17.9849 3.38592 17.5851 3.64696 17.0141 3.85906V13.5994C17.5525 13.8115 17.9359 14.0562 18.1643 14.3336L17.9686 16.0956H13.1229L12.9026 14.358C13.131 14.0644 13.5226 13.8115 14.0773 13.5994V8.09292ZM24.5273 16.2914C22.8305 16.2914 21.5498 15.8346 20.6851 14.9209C19.8367 14.0073 19.4125 12.6939 19.4125 10.9807C19.4125 9.92024 19.5593 9.01474 19.853 8.26423C20.1467 7.4974 20.5464 6.91005 21.0522 6.50217C22.0474 5.71903 23.2058 5.32745 24.5273 5.32745C25.8489 5.32745 26.8605 5.66192 27.562 6.33085C28.2636 6.99978 28.6144 8.20713 28.6144 9.95288C28.6144 10.9644 28.1086 11.4702 27.097 11.4702H22.4961C22.545 12.3676 22.7734 13.0039 23.1813 13.3791C23.5892 13.7381 24.2255 13.9175 25.0902 13.9175C25.5797 13.9175 26.0447 13.8604 26.4852 13.7462C26.9257 13.632 27.2439 13.5178 27.4397 13.4036L27.7334 13.2323L28.3697 14.9454C28.2881 15.0433 28.1657 15.1657 28.0026 15.3125C27.8394 15.4593 27.4315 15.6551 26.7789 15.8999C26.11 16.1609 25.3594 16.2914 24.5273 16.2914ZM25.8734 9.58578C25.8897 9.39 25.8979 9.15342 25.8979 8.87606C25.8979 8.58238 25.7837 8.28055 25.5552 7.97055C25.3431 7.64425 24.9516 7.48109 24.3805 7.48109C23.8258 7.48109 23.4016 7.65241 23.1079 7.99503C22.8142 8.33765 22.6103 8.90869 22.4961 9.70815L25.8734 9.58578ZM35.2221 1.04465C36.0379 0.848865 36.8129 0.750977 37.5471 0.750977C38.2813 0.750977 38.9094 0.775447 39.4315 0.824393V13.5749C39.8557 13.6402 40.2473 13.7544 40.6062 13.9175V15.6062C39.7578 16.063 38.681 16.2914 37.3758 16.2914C37.2289 16.2098 37.0902 16.0793 36.9597 15.8999C36.8292 15.7204 36.7558 15.5409 36.7395 15.3614C36.4295 15.6225 36.0297 15.8427 35.5403 16.0222C35.0345 16.2017 34.545 16.2914 34.0719 16.2914C32.5382 16.2914 31.4288 15.8754 30.7435 15.0433C30.0583 14.2112 29.7157 12.857 29.7157 10.9807C29.7157 8.84343 30.2378 7.34241 31.282 6.47769C32.1956 5.71087 33.3295 5.32745 34.6837 5.32745C35.2711 5.32745 35.8666 5.40088 36.4703 5.54771V3.44302C35.8176 3.24724 35.3363 2.98619 35.0263 2.65988L35.2221 1.04465ZM34.4879 14.1378C35.3037 14.1378 35.9563 13.9012 36.4458 13.4281V7.72582C35.8584 7.57898 35.2466 7.50557 34.6103 7.50557C33.9577 7.50557 33.4845 7.79109 33.1908 8.36213C32.8972 8.94948 32.7504 9.80604 32.7504 10.9318C32.7504 12.0739 32.889 12.8978 33.1664 13.4036C33.4601 13.8931 33.9006 14.1378 34.4879 14.1378ZM41.732 5.52324C42.5314 5.32745 43.2738 5.22956 43.959 5.22956C44.628 5.22956 45.199 5.25404 45.6722 5.30298V13.7707C46.2269 13.9828 46.6185 14.2275 46.8469 14.5049L46.6266 16.1446H41.732L41.5362 14.5049C41.732 14.2275 42.1154 13.9828 42.6864 13.7707V7.87266C42.197 7.70951 41.8135 7.47293 41.5362 7.16294L41.732 5.52324ZM44.1304 4.05485C42.9556 4.05485 42.3683 3.51644 42.3683 2.43962C42.3683 1.37912 42.9556 0.848868 44.1304 0.848868C45.3214 0.848868 45.9169 1.37912 45.9169 2.43962C45.9169 3.51644 45.3214 4.05485 44.1304 4.05485ZM48.4621 8.99842C48.2174 8.49264 48.095 7.85635 48.095 7.08952C48.095 6.87742 48.1032 6.64901 48.1195 6.40427C49.441 5.70271 50.8523 5.35192 52.3533 5.35192C53.8707 5.35192 54.9638 5.63744 55.6327 6.20848C56.2854 6.77952 56.6117 7.72582 56.6117 9.04737V13.5749C57.1011 13.6728 57.4927 13.7952 57.7864 13.942V15.802C57.0685 16.1283 56.0325 16.2914 54.6783 16.2914C54.5314 15.9325 54.4091 15.492 54.3112 14.9699C53.7075 15.8509 52.6062 16.2914 51.0073 16.2914C50.061 16.2914 49.2534 16.0222 48.5845 15.4838C47.8992 14.9291 47.5566 14.1786 47.5566 13.2323C47.5566 12.2697 47.8747 11.5192 48.511 10.9807C49.1473 10.4423 50.0855 10.1731 51.3254 10.1731H53.6504V9.14526C53.6504 8.03581 53.063 7.48109 51.8883 7.48109C51.4478 7.48109 51.0807 7.52188 50.787 7.60346C50.7544 8.20713 50.6728 8.67211 50.5423 8.99842H48.4621ZM51.9128 14.1378C52.647 14.1378 53.2262 13.9257 53.6504 13.5015V11.7639H52.1575C51.1297 11.7639 50.6157 12.1473 50.6157 12.9141C50.6157 13.2731 50.7299 13.5667 50.9583 13.7952C51.1704 14.0236 51.4886 14.1378 51.9128 14.1378ZM58.7653 5.52324C59.5484 5.34377 60.25 5.25403 60.87 5.25403C61.49 5.25403 62.0039 5.27035 62.4118 5.30298V6.35533C62.7544 6.07796 63.1786 5.84139 63.6844 5.64561C64.1902 5.44982 64.6552 5.35192 65.0794 5.35192C66.6946 5.35192 67.7714 5.75165 68.3098 6.55111C68.6524 6.20848 69.1174 5.92296 69.7048 5.69455C70.2758 5.46613 70.8142 5.35192 71.32 5.35192C72.87 5.35192 73.9142 5.70271 74.4526 6.40427C74.991 7.10584 75.2602 8.41922 75.2602 10.3444V13.7707C75.8149 13.9828 76.2065 14.2275 76.4349 14.5049L76.2146 16.1446H71.3445L71.1242 14.5049C71.32 14.2275 71.7116 13.9828 72.2989 13.7707V9.56131C72.2989 8.79448 72.1929 8.28054 71.9808 8.0195C71.7687 7.75845 71.3445 7.62793 70.7082 7.62793C70.0719 7.62793 69.4764 7.8645 68.9216 8.33765C68.9869 8.8108 69.0195 9.47973 69.0195 10.3444V13.7707C69.5743 13.9828 69.9658 14.2275 70.1943 14.5049L69.974 16.1446H65.1038L64.8836 14.5049C65.0794 14.2275 65.4709 13.9828 66.0583 13.7707V9.56131C66.0583 8.79448 65.9522 8.28054 65.7401 8.0195C65.528 7.75845 65.1038 7.62793 64.4675 7.62793C63.8476 7.62793 63.252 7.85634 62.681 8.31318V13.7707C63.2357 13.9828 63.6273 14.2275 63.8557 14.5049L63.6354 16.1446H58.7653L58.545 14.5049C58.7408 14.2275 59.1324 13.9828 59.7197 13.7707V7.87266C59.2303 7.69319 58.8387 7.44846 58.545 7.13847L58.7653 5.52324Z" fill="#1D1D1D"/>
</svg>
